Coordinates
version=1
nRows=14
nColumns=24
inDegrees=yes

Units are S.I. units (second, meters, Newtons, ...)
Angles are in degrees.

endheader
time	pelvis_tilt	pelvis_list	pelvis_rotation	pelvis_tx	pelvis_ty	pelvis_tz	hip_flexion_r	hip_adduction_r	hip_rotation_r	knee_angle_r	ankle_angle_r	subtalar_angle_r	mtp_angle_r	hip_flexion_l	hip_adduction_l	hip_rotation_l	knee_angle_l	ankle_angle_l	subtalar_angle_l	mtp_angle_l	lumbar_extension	lumbar_bending	lumbar_rotation
      1.58833333	     -5.13190210	      6.24274106	     -3.86222152	      0.42011583	      0.98896524	      0.30393672	     20.81438548	     -7.68110941	      2.10677144	    -66.14914229	      1.49746138	    -14.22611465	      3.55805831	     12.93233695	     11.84372551	     -0.98314776	     -9.54404252	      0.14997959	    -15.50292791	     -1.58112987	      3.85023239	     -3.47930457	      7.13038845
      1.59250000	     -5.11283966	      6.19909170	     -3.73943648	      0.42469388	      0.98940471	      0.30362020	     21.39751770	     -7.61300172	      2.09219855	    -65.97047695	      2.07410706	    -14.19042692	      0.47137174	     12.47445833	     11.86649169	     -0.78933302	     -9.30779215	      0.25790881	    -15.50506729	     -2.50207097	      3.80045855	     -3.44362829	      6.97565418
      1.59666667	     -5.03198224	      6.10128335	     -3.60723812	      0.42929347	      0.98996377	      0.30333719	     21.87000742	     -7.48971543	      2.05202628	    -65.69479413	      2.53322988	    -14.20969886	      0.47188589	     11.95267804	     11.82712254	     -0.62562607	     -9.09353601	      0.39706609	    -15.36731451	     -2.49711797	      3.65866824	     -3.36103474	      6.90369940
      1.60083333	     -4.93639904	      6.05123836	     -3.47893589	      0.43390212	      0.99048302	      0.30303743	     22.32977148	     -7.42892527	      2.02050044	    -65.39717446	      2.98348057	    -14.12485038	      0.46749025	     11.40149367	     11.83982440	     -0.45361805	     -8.83985184	      0.50708733	    -15.29339193	     -2.49640689	      3.51509722	     -3.33427353	      6.67154982
      1.60500000	     -4.88070969	      5.97085430	     -3.33024667	      0.43848143	      0.99094387	      0.30273383	     22.81195262	     -7.33178072	      1.97130005	    -65.04888132	      3.41478279	    -14.04395085	      0.46366102	     10.90203263	     11.81634261	     -0.25406068	     -8.61119375	      0.61631772	    -15.22239092	     -2.49820024	      3.41083162	     -3.26610496	      6.46979510
      1.60916667	     -4.80784982	      5.90561152	     -3.18075345	      0.44306688	      0.99139936	      0.30243332	     23.26549847	     -7.25593465	      1.92138023	    -64.66274842	      3.82862058	    -13.91934283	      0.46193525	     10.37996847	     11.80693207	     -0.05714078	     -8.37137762	      0.71930044	    -15.14728903	     -2.50311117	      3.28721441	     -3.21701622	      6.26371647
      1.61333333	     -4.74177136	      5.83679994	     -3.02577835	      0.44764580	      0.99184187	      0.30214156	     23.71069988	     -7.17476660	      1.86952561	    -64.23074270	      4.22097916	    -13.77580214	      0.46129316	      9.86445845	     11.78922711	      0.14415710	     -8.13130317	      0.82122789	    -15.07080548	     -2.51017640	      3.17138636	     -3.16805641	      6.05377467
      1.61750000	     -4.68948407	      5.75111325	     -2.85287200	      0.45220803	      0.99224828	      0.30185688	     24.14922325	     -7.07450960	      1.80182773	    -63.75071773	      4.59613246	    -13.65716589	      0.46442798	      9.37332409	     11.74866748	      0.35112366	     -7.91446618	      0.92520428	    -14.96930796	     -2.51475662	      3.07242807	     -3.11278325	      5.90117440
      1.62166667	     -4.61717808	      5.70350805	     -2.70026910	      0.45677907	      0.99262897	      0.30156561	     24.57151913	     -7.02216245	      1.75275049	    -63.25333119	      4.94362559	    -13.44435610	      0.46561122	      8.84658020	     11.74699116	      0.54306834	     -7.65957387	      1.03615273	    -14.89511514	     -2.52855679	      2.95091385	     -3.07890605	      5.61826476
      1.62583333	     -4.55252917	      5.64263417	     -2.53330735	      0.46134199	      0.99299259	      0.30128049	     24.97983702	     -6.95453318	      1.68927167	    -62.70851014	      5.27690900	    -13.28138039	      0.46734903	      8.33329328	     11.72705308	      0.74156423	     -7.41877244	      1.14899423	    -14.80202345	     -2.54234895	      2.83974286	     -3.03662997	      5.40906177
      1.63000000	     -4.50145816	      5.57477566	     -2.35845381	      0.46588252	      0.99331955	      0.30100275	     25.38776873	     -6.87878955	      1.62062216	    -62.12352897	      5.57468738	    -13.11924351	      0.46764811	      7.83916033	     11.69416845	      0.94081006	     -7.18596007	      1.25691717	    -14.69090184	     -2.56046155	      2.73698163	     -2.98971537	      5.17683561
      1.63416667	     -4.43069062	      5.51376395	     -2.18847640	      0.47043669	      0.99366293	      0.30073470	     25.75978690	     -6.81205255	      1.55137611	    -61.50033074	      5.85952225	    -12.98066535	      0.46806419	      7.31941224	     11.66480700	      1.12374509	     -6.94365577	      1.38083686	    -14.57870053	     -2.57617806	      2.62157342	     -2.94986893	      4.97128445
      1.63833333	     -4.39150975	      5.45926596	     -2.01220007	      0.47496459	      0.99392658	      0.30046221	     26.15792501	     -6.75174656	      1.48216250	    -60.85010697	      6.11668557	    -12.84227702	      0.46680586	      6.83832761	     11.63804800	      1.31395449	     -6.70682558	      1.49883263	    -14.46348631	     -2.59396609	      2.53564681	     -2.91705058	      4.74621633
      1.64250000	     -4.31725553	      5.39592536	     -1.83531147	      0.47950176	      0.99425062	      0.30020952	     26.49441358	     -6.68333817	      1.40412053	    -60.15039478	      6.34072272	    -12.74483476	      0.46314184	      6.31376979	     11.59744999	      1.49431094	     -6.45982304	      1.61616157	    -14.32694754	     -2.61112849	      2.41036485	     -2.87701854	      4.53244649
